<svg xmlns="http://www.w3.org/2000/svg" xmlns:xlink="http://www.w3.org/1999/xlink" viewBox="0 0 124 154" fill="#fff" fill-rule="evenodd" stroke="#000" stroke-linecap="round" stroke-linejoin="round"><style><![CDATA[.B{stroke:none}.C{fill:#fdcc9b}.D{fill:#262626}.E{text-anchor:start}.F{font-weight:bold}]]></style><use xlink:href="#A" x=".5" y=".5"/><symbol id="A" overflow="visible"><g class="B"><path d="M15.476 21.753Q38.317-8.701 79.429 3.481q21.318 7.613 30.454 24.363 4.568 13.704 12.182 25.886 1.523 2.284-2.284 1.523-5.329-3.045-6.852-7.614 7.613 35.022-6.852 49.488-6.852 10.659-1.523 22.079.761 3.807-3.045 1.523-3.045-1.523-5.329-3.045 0 12.943 3.807 15.227 0 1.523-3.045 1.523-7.613-4.568-10.659-10.659-.761 6.091 2.284 13.704-59.385 0-59.385 0 7.309-.305 6.852-14.466-3.502 8.679-12.943 11.116-.914 0-.914-1.827 5.786-8.223 3.35-14.009-4.264 3.654-7.309 3.045-.609 0-.609-1.523 3.959-8.223.914-19.795Q6.645 89.361 6.34 66.825q.914-29.54 1.523-31.368-.305-4.264-5.786-2.436-1.827 0-1.827-.609-1.827-.609 9.745-9.441 2.132-1.827 3.35-10.963 0-.914 1.218-.914 2.132 1.523.914 10.659z" class="D"/><path d="M107.405 53.356c0-17.559-14.212-30.409-45.953-30.409S15.499 35.796 15.499 53.356s-3.316 63.816 45.953 63.816 45.953-46.255 45.953-63.816z" class="C"/><path d="M61.476 152.172H7.5c0-11.329 28.431-27.989 53.976-27.989s53.976 16.66 53.976 27.989z" fill="#f99"/><path d="M61.476 124.183c-5.433 0-10.997.76-16.39 2.055.036.048 5.982 7.718 16.39 7.718 9.638 0 16.045-6.569 16.974-7.579-5.575-1.384-11.344-2.195-16.974-2.195z" fill="#f66"/><path d="M100.452 72.172q9.5 0 9.5 9-1.5 13-13 12 0-21 3.5-21z" class="C"/></g><path d="M21.452 72.172q-9.5 0-9.5 9 1.5 13 13 12 0-21-3.5-21z" class="B C"/><path d="M33.024 62.487c2.206 1.103 5.748-3.748 13.856.472 1.478.769 2.36-6.58-6.331-6.58-7.525 0-8.858 5.442-7.525 6.108zm56.904 0c-2.206 1.103-5.748-3.748-13.855.472-1.478.769-2.36-6.58 6.331-6.58 7.524 0 8.857 5.442 7.524 6.108z" class="B D"/><path d="M60.327 93.547c-4.61 0-6.237-4.871-6.237-3.205s1.333 4.832 7.386 4.832 7.386-3.165 7.386-4.832-3.285 4.705-7.285 2.58z" fill="#fcbc85" class="B"/><path d="M36.321 75.148c0-2.831 1.813-5.109 4.065-5.109s4.065 2.279 4.065 5.109-1.813 5.109-4.065 5.109-4.065-2.279-4.065-5.109zm43.5-.585c0-2.831 1.924-5.109 4.315-5.109s4.315 2.279 4.315 5.109-1.925 5.109-4.315 5.109-4.315-2.279-4.315-5.109z" class="B" fill="#000"/><g fill="#646464"><circle cx="38.89" cy="73.61" r="1.438" class="B"/><circle cx="82.14" cy="73.36" r="1.438" class="B"/></g><path d="M60.962 109.302c-2.425 0-3.282-1.109-3.282-.73s.701 1.1 3.886 1.1 3.886-.721 3.886-1.1-1.728 1.071-3.833.587z" fill="#fcbc85" class="B"/><path d="M49.952 114.672v11.858q12 12.819 22.75-.32v-10.896z" class="B C"/><g class="B"><path d="M72.27 103.758a.84.84 0 0 0-.697-.019 25.76 25.76 0 0 1-9.552 1.933c-5.233 0-9.51-1.914-9.552-1.933-.21-.095-.502-.087-.697.019s-.239.283-.103.419c.142.143 3.532 3.496 10.353 3.496s10.212-3.352 10.353-3.496c.135-.137.092-.312-.103-.419" fill="#f7945e"/><g fill="#f9aa8d"><circle cx="34.202" cy="90.922" r="6.25"/><circle cx="90.702" cy="90.922" r="6.25"/></g><path d="M25.066 72.515Q26.568 76.9 28.07 76.9q3.005-16.078 6.009-21.925 12.019 5.847 24.037 5.847 2.253-.731-.751-6.578 14.272 6.578 27.042 5.847 1.352 0-1.202-4.239 9.014 4.239 10.667 22.071 1.803 1.9 3.305-1.754 4.507 21.194-2.253 28.502 31.549-13.155 13.521-67.236Q89.665 8.933 35.582 12.587 16.803 22.088 8.54 39.628 4.033 88.594 19.056 99.556q3.756 5.847 8.263 4.385-6.009-21.194-2.253-31.426z" class="D"/><path d="M40.79 65.009c.445.025 1.119.002 1.59.002 6.578.513 15.814 2.917 18.068 2.864 5.324-.124 12.5-2.458 18.382-2.988l1.11-.119c6.568-.373 15.39.429 16.969.924 1.99.627 2.049.787 2.089 2.281s-.255 2.785-1.461 3.174c-1.647.522-1.725 2.528-2.99 8.274-1.147 5.233-3.667 9.379-13.892 10.148-.382.053-.891.04-1.243.04-9.154.261-11.866-5.761-12.845-7.704-1.804-3.607-1.127-8.486-6.196-8.478s-4.638 4.986-6.696 8.592c-1.098 1.918-4.383 7.656-13.327 7.653-.438-.007-.899-.06-1.419-.06-10.176-.725-12.412-4.853-13.205-10.086-.883-5.737-.834-7.744-2.442-8.265-1.166-.38-1.382-1.662-1.245-3.165s.206-1.662 2.245-2.298c1.588-.46 10.012-1.099 16.508-.789zm0 1.447c5.343.221 11.021 1.313 12.894 3.885 3.108 4.217-2.481 14.533-7.529 16.796-1.783.735-3.932 1.049-5.893 1.024-4.677 0-9.694-1.51-11.449-4.772-2.461-4.579-2.804-13.817.627-15.761 1.48-.84 6.234-1.386 11.351-1.171zm39.15 0c5.157-.256 10.243.252 11.685 1.092 3.284 1.918 2.323 11.165-.442 15.753-1.96 3.182-7 4.8-11.597 4.87-2.061.037-4.114-.323-5.991-1.096-4.902-2.272-9.804-12.562-6.392-16.796 2.049-2.555 7.424-3.566 12.737-3.823z" fill="#4f4f4f"/></g></symbol></svg>